<?xml version="1.0" encoding="UTF-8"?>
<svg version="1.1" xmlns="http://www.w3.org/2000/svg" width="204" height="207">
<path d="M0 0 C4.8041874 4.26950209 8.6505995 8.85539552 9.375 15.375 C8.92573223 19.7179218 7.8337428 21.70673134 5 25 C0.85198491 27.57849587 -2.33929431 27.04380388 -7 26 C-9.44220787 24.61835666 -11.54013027 22.9233903 -13.6875 21.125 C-14.24244141 20.67769531 -14.79738281 20.23039062 -15.36914062 19.76953125 C-16.91867538 18.52032249 -18.45962682 17.26048838 -20 16 C-21.18529297 15.16082031 -21.18529297 15.16082031 -22.39453125 14.3046875 C-22.92433594 13.87414062 -23.45414062 13.44359375 -24 13 C-24 12.34 -24 11.68 -24 11 C-24.845625 10.731875 -25.69125 10.46375 -26.5625 10.1875 C-30 9 -30 9 -32.9375 7.375 C-40.54994717 4.08358714 -50.39571501 5.10743282 -58.0625 7.6875 C-62.43967112 9.50480765 -65.53698588 11.80337158 -69 15 C-69.66 15 -70.32 15 -71 15 C-71.25394531 15.53753906 -71.50789063 16.07507813 -71.76953125 16.62890625 C-73 19 -73 19 -74.69921875 21.71484375 C-79.65081599 29.74051707 -82.8199437 37.59911348 -85.30151367 46.71459961 C-86.84160061 51.94538962 -88.52185331 55.66283045 -92.95532227 58.99804688 C-96.78242765 60.87344275 -100.52507611 60.54754701 -104.6875 60.25 C-106.35763288 60.16297392 -108.0282402 60.08453133 -109.69921875 60.015625 C-110.42971436 59.96696289 -111.16020996 59.91830078 -111.9128418 59.86816406 C-114.35759549 60.02258762 -115.89622005 60.78359924 -118 62 C-118 63.98 -118 65.96 -118 68 C-116.02 68.66 -114.04 69.32 -112 70 C-112 70.66 -112 71.32 -112 72 C-111.01 71.67 -110.02 71.34 -109 71 C-104.36004806 73.78397116 -102.68671051 76.93986846 -101 82 C-100.8125 84.9375 -100.8125 84.9375 -101 87 C-100.01 87 -99.02 87 -98 87 C-97.67 87.66 -97.34 88.32 -97 89 C-96.01 88.34 -95.02 87.68 -94 87 C-91.3125 86.875 -91.3125 86.875 -89 87 C-88.61908203 85.7315625 -88.61908203 85.7315625 -88.23046875 84.4375 C-84.11852077 72.95015327 -77.79221871 63.88666475 -67 58 C-68.175625 57.62875 -68.175625 57.62875 -69.375 57.25 C-72 56 -72 56 -73.375 54.375 C-74.67010327 49.45360758 -73.85999127 45.72992463 -71.6484375 41.28125 C-67.89851309 35.04849892 -63.72243107 30.4385523 -58 26 C-57.21625 25.29875 -56.4325 24.5975 -55.625 23.875 C-49.70827849 19.64877035 -43.63817052 16.04896289 -36.16796875 16.51171875 C-29.99148962 17.90281765 -25.45253992 21.82477904 -22 27 C-21.30274155 29.65068886 -20.74225269 32.19177079 -20.25 34.875 C-18.92974823 40.77992072 -17.72668714 44.90218227 -12.59375 48.55078125 C-1.86669031 54.5443643 11.346013 61.89809805 24 60 C26.03555021 58.55013124 27.73213405 57.02168381 29.45703125 55.21484375 C29.96621094 54.81394531 30.47539062 54.41304688 31 54 C31.99 54.33 32.98 54.66 34 55 C35.57869653 60.13076373 34.50540784 63.19645413 32.23828125 67.81640625 C30.00887028 71.74776502 27.71247276 74.92358855 23.8125 77.375 C19.55168969 78.32184674 15.34541181 78.15187847 11 78 C10.67 79.98 10.34 81.96 10 84 C10.99 84.33 11.98 84.66 13 85 C13.6875 87.0625 13.6875 87.0625 14 89 C14.99 88.34 15.98 87.68 17 87 C20.0625 86.75 20.0625 86.75 23 87 C23.66 87.66 24.32 88.32 25 89 C24.9559884 91.50572698 24.81431775 93.88977057 24.5625 96.375 C23.98990563 101.38668352 23.98990563 101.38668352 24.58984375 106.3515625 C24.72519531 106.89554687 24.86054688 107.43953125 25 108 C24.34 108.66 23.68 109.32 23 110 C20.38419521 109.6730244 18.35921863 109.17960932 16 108 C15.195625 108.165 14.39125 108.33 13.5625 108.5 C11 109 11 109 8 108 C7.38125 109.2065625 7.38125 109.2065625 6.75 110.4375 C5 113 5 113 3.015625 113.46875 C0.60047133 113.86449302 0.60047133 113.86449302 -1 117.0625 C-3.24001604 121.86502467 -4.32687805 127.00957438 -5.34179688 132.18774414 C-7.1033007 140.3070524 -12.3900585 144.72838112 -18.8125 149.375 C-19.39064453 149.82488281 -19.96878906 150.27476562 -20.56445312 150.73828125 C-25.19695668 154.10644406 -28.2920635 154.7041135 -34 154 C-35.69315631 153.04553707 -37.36253067 152.04712558 -39 151 C-42.07712685 150.53670138 -42.07712685 150.53670138 -45.3125 150.5 C-52.24112485 150.09335385 -57.39756573 149.32810359 -62.7421875 144.546875 C-66.03333345 141.73862163 -69.55390428 140.59241835 -73.6875 139.5 C-78.564526 138.106564 -83.11760883 136.61962302 -87.6875 134.375 C-93.55373458 131.54024945 -99.6327149 130.24511298 -106 129 C-105.43289116 131.56707248 -104.84713469 134.12739643 -104.25 136.6875 C-104.09273437 137.40873047 -103.93546875 138.12996094 -103.7734375 138.87304688 C-102.68755333 143.4462898 -101.41920314 146.58732206 -98 150 C-94.39535522 151.20154826 -91.18003475 151.04965182 -87.4375 150.95703125 C-85.9023571 150.93461338 -84.36719985 150.91316127 -82.83203125 150.89257812 C-80.42717037 150.85575659 -78.02305552 150.81307438 -75.61865234 150.75317383 C-66.92947273 150.54706008 -59.36403762 150.41088777 -51.26171875 154.03393555 C-43.04249207 157.54467389 -33.38917143 156.35524866 -25 154 C-20.85363794 152.2524495 -16.93484699 150.17748694 -13 148 C-11.00017991 146.89550753 -9.00018754 145.7913269 -7 144.6875 C-6.13375 144.19636719 -5.2675 143.70523438 -4.375 143.19921875 C0.25026973 140.86376183 4.85716993 140.45499874 10 141 C13.49319575 142.25227772 15.46552993 143.43212555 18 146.125 C19.4914249 150.41284658 18.4893728 153.79840093 17 158 C15.5 160.5625 15.5 160.5625 14 162 C13.34 162 12.68 162 12 162 C12 162.66 12 163.32 12 164 C-18.58393439 180.00124211 -68.44784349 189.07808904 -102 179 C-111.25198564 175.38885231 -119.49049134 170.50307966 -127 164 C-127.81984375 163.37867188 -128.6396875 162.75734375 -129.484375 162.1171875 C-137.46209453 155.40301982 -142.25541454 145.97834186 -144.75 136 C-145.90030649 122.19632212 -143.249121 108.6829567 -139.9375 95.3125 C-137.34468878 84.76588416 -136.07444019 74.25878511 -135.71484375 63.41674805 C-135.16000451 47.33394879 -131.45754582 33.3973311 -119.36328125 22.0546875 C-87.55064009 -5.6039063 -38.9831419 -25.32369454 0 0 Z M-55.3125 48.625 C-56.19550781 49.42164063 -57.07851562 50.21828125 -57.98828125 51.0390625 C-58.98408203 52.00972656 -58.98408203 52.00972656 -60 53 C-60 53.33 -60 53.66 -60 54 C-58.71416016 54.14695312 -58.71416016 54.14695312 -57.40234375 54.296875 C-47.08851803 55.6456955 -42.00142218 57.60122191 -35.1875 65.375 C-26.69316612 74.9550758 -18.51892874 77.94357655 -6 80 C-6 78.68 -6 77.36 -6 76 C-7.18078125 75.67386719 -8.3615625 75.34773438 -9.578125 75.01171875 C-11.13554421 74.57076271 -12.69282892 74.12933147 -14.25 73.6875 C-15.02730469 73.47416016 -15.80460937 73.26082031 -16.60546875 73.04101562 C-20.68369606 71.87331806 -23.7078525 70.77876806 -27 68 C-27.66 68 -28.32 68 -29 68 C-30.34657074 64.95638121 -31.3114604 61.93540926 -32.11328125 58.71484375 C-32.30986328 57.93689453 -32.50644531 57.15894531 -32.70898438 56.35742188 C-33.11157011 54.74317034 -33.50220145 53.1258907 -33.88085938 51.50585938 C-34.88511308 47.61477991 -35.60709675 45.41575384 -38.41796875 42.44140625 C-45.3937394 38.54721658 -50.30340487 44.06857865 -55.3125 48.625 Z M3 77 C4 79 4 79 4 79 Z M-98 93 C-98.33 96.3 -98.66 99.6 -99 103 C-97.02 103 -95.04 103 -93 103 C-94.32 99.7 -95.64 96.4 -97 93 C-97.33 93 -97.66 93 -98 93 Z M-10 96 C-11.41577477 97.18424326 -11.41577477 97.18424326 -11.0625 100.5625 C-11.041875 101.696875 -11.02125 102.83125 -11 104 C-10.01 104.495 -10.01 104.495 -9 105 C-9 102.03 -9 99.06 -9 96 C-9.33 96 -9.66 96 -10 96 Z M8 96 C9 98 9 98 9 98 Z M-114 107 C-115.72262035 109.99407823 -116.27306023 112.17749593 -116.25 115.625 C-116.25515625 116.40101563 -116.2603125 117.17703125 -116.265625 117.9765625 C-116.17915354 120.22688411 -116.17915354 120.22688411 -114 122 C-113.896875 120.783125 -113.79375 119.56625 -113.6875 118.3125 C-113.23780688 114.58930552 -112.21617222 112.08337005 -110 109 C-111.32 108.34 -112.64 107.68 -114 107 Z M-23.90234375 107.26953125 C-27.11511486 108.38831747 -28.77730017 110.53087909 -31.015625 113.015625 C-36.22206852 118.22206852 -42.58640278 122.35533937 -50 123 C-52 122 -52 122 -53 119 C-53.54825439 118.93006836 -54.09650879 118.86013672 -54.66137695 118.78808594 C-78.29744948 115.70307133 -78.29744948 115.70307133 -86.484375 110.38671875 C-89.23557525 108.87014097 -90.71483926 108.67379877 -93.8125 108.8125 C-94.60269531 108.83957031 -95.39289063 108.86664063 -96.20703125 108.89453125 C-97.09455078 108.94673828 -97.09455078 108.94673828 -98 109 C-96.55697444 112.96832029 -95.32558145 114.77656175 -91.8125 117.1875 C-87.0739284 119.31985722 -82.02042819 119.99817828 -76.93701172 120.8605957 C-68.8688133 122.27645024 -63.10518275 125.07972783 -56.6015625 129.890625 C-51.71621096 133.2746246 -47.25426132 133.20910372 -41.58984375 132.4765625 C-32.97927069 130.89211316 -25.93416037 128.08126951 -20.8125 120.6875 C-18.43323832 116.91565209 -16.59316982 113.15994342 -15 109 C-18.3297238 106.78018413 -19.99917934 106.6674097 -23.90234375 107.26953125 Z " fill="#1A1312" transform="translate(159,16)"/>
<path d="M0 0 C4.8041874 4.26950209 8.6505995 8.85539552 9.375 15.375 C8.92573223 19.7179218 7.8337428 21.70673134 5 25 C0.85198491 27.57849587 -2.33929431 27.04380388 -7 26 C-9.44220787 24.61835666 -11.54013027 22.9233903 -13.6875 21.125 C-14.24244141 20.67769531 -14.79738281 20.23039062 -15.36914062 19.76953125 C-16.91867538 18.52032249 -18.45962682 17.26048838 -20 16 C-21.18529297 15.16082031 -21.18529297 15.16082031 -22.39453125 14.3046875 C-22.92433594 13.87414062 -23.45414062 13.44359375 -24 13 C-24 12.34 -24 11.68 -24 11 C-24.845625 10.731875 -25.69125 10.46375 -26.5625 10.1875 C-30 9 -30 9 -32.9375 7.375 C-40.54994717 4.08358714 -50.39571501 5.10743282 -58.0625 7.6875 C-62.43967112 9.50480765 -65.53698588 11.80337158 -69 15 C-69.66 15 -70.32 15 -71 15 C-71.25394531 15.53753906 -71.50789063 16.07507813 -71.76953125 16.62890625 C-73 19 -73 19 -74.69921875 21.71484375 C-79.65081599 29.74051707 -82.8199437 37.59911348 -85.30151367 46.71459961 C-86.84160061 51.94538962 -88.52185331 55.66283045 -92.95532227 58.99804688 C-96.78242765 60.87344275 -100.52507611 60.54754701 -104.6875 60.25 C-106.35763288 60.16297392 -108.0282402 60.08453133 -109.69921875 60.015625 C-110.42971436 59.96696289 -111.16020996 59.91830078 -111.9128418 59.86816406 C-114.45504394 60.02874298 -115.91985454 60.524867 -118 62 C-118.22597677 64.03379095 -118.44742452 66.06888177 -118.6015625 68.109375 C-119 70 -119 70 -121.3125 71.6875 C-122.199375 72.120625 -123.08625 72.55375 -124 73 C-131.76889963 80.76889963 -133.9830015 93.16306999 -134.3125 103.75 C-134.23244584 108.45985304 -133.47566801 112.52433199 -130 116 C-126.71256453 116.66923762 -126.71256453 116.66923762 -123 116 C-119.34264835 112.98806335 -117.00226177 109.24893107 -115 105 C-114 108 -114 108 -115 111 C-115.4015432 114.06320095 -115.48517463 116.94339981 -115 120 C-112.85393478 122.89612236 -112.85393478 122.89612236 -110 125 C-105.83601108 128.33754837 -104.99281539 131.89528482 -104 136.9375 C-102.94621509 142.2600895 -101.98496057 146.0225867 -98 150 C-94.39535522 151.20154826 -91.18003475 151.04965182 -87.4375 150.95703125 C-85.9023571 150.93461338 -84.36719985 150.91316127 -82.83203125 150.89257812 C-80.42717037 150.85575659 -78.02305552 150.81307438 -75.61865234 150.75317383 C-66.92947273 150.54706008 -59.36403762 150.41088777 -51.26171875 154.03393555 C-43.04249207 157.54467389 -33.38917143 156.35524866 -25 154 C-20.85363794 152.2524495 -16.93484699 150.17748694 -13 148 C-11.00017991 146.89550753 -9.00018754 145.7913269 -7 144.6875 C-6.13375 144.19636719 -5.2675 143.70523438 -4.375 143.19921875 C0.25026973 140.86376183 4.85716993 140.45499874 10 141 C13.49319575 142.25227772 15.46552993 143.43212555 18 146.125 C19.4914249 150.41284658 18.4893728 153.79840093 17 158 C15.5 160.5625 15.5 160.5625 14 162 C13.34 162 12.68 162 12 162 C12 162.66 12 163.32 12 164 C-18.58393439 180.00124211 -68.44784349 189.07808904 -102 179 C-111.25198564 175.38885231 -119.49049134 170.50307966 -127 164 C-127.81984375 163.37867188 -128.6396875 162.75734375 -129.484375 162.1171875 C-137.46209453 155.40301982 -142.25541454 145.97834186 -144.75 136 C-145.90030649 122.19632212 -143.249121 108.6829567 -139.9375 95.3125 C-137.34468878 84.76588416 -136.07444019 74.25878511 -135.71484375 63.41674805 C-135.16000451 47.33394879 -131.45754582 33.3973311 -119.36328125 22.0546875 C-87.55064009 -5.6039063 -38.9831419 -25.32369454 0 0 Z " fill="#0963BA" transform="translate(159,16)"/>
<path d="M0 0 C5.08814701 2.93248167 9.50871641 7.0957307 12.984375 11.8046875 C19.51004997 19.3191011 28.60278626 21.49218575 38.046875 23.1796875 C39.04601172 27.06285718 38.97272859 29.99888423 38.234375 33.9296875 C38.06292969 34.89390625 37.89148438 35.858125 37.71484375 36.8515625 C37.38419922 38.00398438 37.38419922 38.00398438 37.046875 39.1796875 C36.056875 39.6746875 36.056875 39.6746875 35.046875 40.1796875 C34.551875 36.7146875 34.551875 36.7146875 34.046875 33.1796875 C31.79811753 32.31118576 31.79811753 32.31118576 29.046875 32.1796875 C23.97615107 34.96858566 21.08226674 39.88592187 19.046875 45.1796875 C18.93642691 47.28141756 18.93642691 47.28141756 19.171875 49.3046875 C19.03846164 53.44050172 18.90439268 53.92139235 16.234375 56.7421875 C10.22127551 62.05864742 3.288175 67.65966034 -4.953125 68.1796875 C-5.943125 67.5196875 -6.933125 66.8596875 -7.953125 66.1796875 C-7.953125 65.1896875 -7.953125 64.1996875 -7.953125 63.1796875 C-8.95730469 63.15390625 -9.96148437 63.128125 -10.99609375 63.1015625 C-23.55335089 62.63853679 -34.48320629 60.57021835 -44.953125 53.1796875 C-43.963125 52.1896875 -42.973125 51.1996875 -41.953125 50.1796875 C-41.623125 50.5096875 -41.293125 50.8396875 -40.953125 51.1796875 C-39.55728776 51.20025773 -38.16057895 51.17092944 -36.765625 51.1171875 C-32.77846995 51.05986418 -29.67918145 51.65104896 -25.953125 53.1796875 C-26.12714844 52.52613281 -26.30117187 51.87257812 -26.48046875 51.19921875 C-27.08026063 47.36749043 -26.81439619 43.7100031 -26.515625 39.8671875 C-26.46341797 39.12662109 -26.41121094 38.38605469 -26.35742188 37.62304688 C-26.22862348 35.80816041 -26.09169238 33.99385425 -25.953125 32.1796875 C-30.66160507 31.85633379 -30.66160507 31.85633379 -34.578125 34.3046875 C-37.03199224 37.17112238 -37.03199224 37.17112238 -39.140625 40.4921875 C-39.73875 41.3790625 -40.336875 42.2659375 -40.953125 43.1796875 C-41.613125 43.1796875 -42.273125 43.1796875 -42.953125 43.1796875 C-43.613125 41.5296875 -44.273125 39.8796875 -44.953125 38.1796875 C-43.963125 38.1796875 -42.973125 38.1796875 -41.953125 38.1796875 C-41.73020098 34.55580841 -41.73020098 34.55580841 -43.07006836 31.26513672 C-43.953125 29.1796875 -43.953125 29.1796875 -43.37329102 27.16845703 C-42.98842529 26.47349121 -42.60355957 25.77852539 -42.20703125 25.0625 C-41.78099609 24.29035156 -41.35496094 23.51820312 -40.91601562 22.72265625 C-40.45388672 21.92472656 -39.99175781 21.12679687 -39.515625 20.3046875 C-39.08830078 19.51449219 -38.66097656 18.72429687 -38.22070312 17.91015625 C-34.18250777 10.76153943 -29.00840189 6.34370829 -22.203125 1.8671875 C-21.46578125 1.37605469 -20.7284375 0.88492188 -19.96875 0.37890625 C-13.90201823 -3.23056401 -6.35329971 -2.66838588 0 0 Z " fill="#E6E44A" transform="translate(113.953125,71.8203125)"/>
<path d="M0 0 C4.15643604 2.42010601 7.10729335 5.00553678 9.80078125 9.04296875 C10.4980397 11.69365761 11.05852856 14.23473954 11.55078125 16.91796875 C12.87103302 22.82288947 14.07409411 26.94515102 19.20703125 30.59375 C29.93409094 36.58733305 43.14679425 43.9410668 55.80078125 42.04296875 C57.83633146 40.59309999 59.5329153 39.06465256 61.2578125 37.2578125 C61.76699219 36.85691406 62.27617187 36.45601562 62.80078125 36.04296875 C64.28578125 36.53796875 64.28578125 36.53796875 65.80078125 37.04296875 C67.37947778 42.17373248 66.30618909 45.23942288 64.0390625 49.859375 C61.80965153 53.79073377 59.51325401 56.9665573 55.61328125 59.41796875 C51.35247094 60.36481549 47.14619306 60.19484722 42.80078125 60.04296875 C42.47078125 62.02296875 42.14078125 64.00296875 41.80078125 66.04296875 C43.28578125 66.53796875 43.28578125 66.53796875 44.80078125 67.04296875 C45.48828125 69.10546875 45.48828125 69.10546875 45.80078125 71.04296875 C46.79078125 70.38296875 47.78078125 69.72296875 48.80078125 69.04296875 C51.86328125 68.79296875 51.86328125 68.79296875 54.80078125 69.04296875 C56.80078125 71.04296875 56.80078125 71.04296875 56.84765625 72.953125 C56.7496875 73.66339844 56.65171875 74.37367187 56.55078125 75.10546875 C56.463125 75.81832031 56.37546875 76.53117187 56.28515625 77.265625 C56.1253125 77.85214844 55.96546875 78.43867187 55.80078125 79.04296875 C54.81078125 79.53796875 54.81078125 79.53796875 53.80078125 80.04296875 C53.53145604 84.69349747 53.53145604 84.69349747 54.80078125 89.04296875 C52.86328125 88.73046875 52.86328125 88.73046875 50.80078125 88.04296875 C50.47078125 87.05296875 50.14078125 86.06296875 49.80078125 85.04296875 C49.24390625 85.55859375 48.68703125 86.07421875 48.11328125 86.60546875 C45.80078125 88.04296875 45.80078125 88.04296875 43.05078125 87.73046875 C42.30828125 87.50359375 41.56578125 87.27671875 40.80078125 87.04296875 C40.96578125 86.09421875 41.13078125 85.14546875 41.30078125 84.16796875 C41.85344475 81.24127974 41.85344475 81.24127974 41.80078125 79.04296875 C40.48078125 79.04296875 39.16078125 79.04296875 37.80078125 79.04296875 C37.47078125 83.33296875 37.14078125 87.62296875 36.80078125 92.04296875 C35.31578125 92.53796875 35.31578125 92.53796875 33.80078125 93.04296875 C32.18572777 89.81286179 32.17857355 86.22157755 31.80078125 82.66796875 C31.63660245 81.13905371 31.47001188 79.61039536 31.30078125 78.08203125 C31.1925 77.06423584 31.1925 77.06423584 31.08203125 76.02587891 C30.79561837 74.00656867 30.29543777 72.02159481 29.80078125 70.04296875 C28.81078125 77.30296875 27.82078125 84.56296875 26.80078125 92.04296875 C26.14078125 92.04296875 25.48078125 92.04296875 24.80078125 92.04296875 C24.60396226 84.77358859 25.16252149 77.80058736 26.17578125 70.60546875 C26.30210937 69.62642578 26.4284375 68.64738281 26.55859375 67.63867188 C26.6875 66.70087891 26.81640625 65.76308594 26.94921875 64.796875 C27.06442871 63.95455322 27.17963867 63.11223145 27.29833984 62.24438477 C27.80078125 60.04296875 27.80078125 60.04296875 29.80078125 57.04296875 C30.79078125 57.04296875 31.78078125 57.04296875 32.80078125 57.04296875 C33.94594229 66.06111196 33.89549983 74.97103355 33.80078125 84.04296875 C34.46078125 84.04296875 35.12078125 84.04296875 35.80078125 84.04296875 C35.78917969 83.1715625 35.77757812 82.30015625 35.765625 81.40234375 C35.70616735 73.55393437 36.00000417 65.85054525 36.80078125 58.04296875 C35.81078125 58.53796875 35.81078125 58.53796875 34.80078125 59.04296875 C34.14078125 58.05296875 33.48078125 57.06296875 32.80078125 56.04296875 C29.51002129 56.42201083 29.51002129 56.42201083 26.80078125 58.04296875 C18.33549165 57.96738581 9.27701184 55.61553926 2.80078125 50.04296875 C-1.11201909 43.94360351 -2.50265453 37.33080148 -4.07421875 30.3359375 C-5.27139977 26.8316889 -5.94608342 25.70622591 -9.19921875 24.04296875 C-12.98625418 23.82448594 -15.25502141 24.24188794 -18.18359375 26.7265625 C-19.5469365 28.12425304 -20.89299526 29.5389794 -22.22265625 30.96875 C-26.4965947 35.45385141 -30.79271406 38.75176399 -37.19921875 39.04296875 C-40.19921875 38.04296875 -40.19921875 38.04296875 -41.44921875 36.48046875 C-42.95796006 31.57705951 -42.06657441 27.78770731 -39.84765625 23.32421875 C-36.09773184 17.09146767 -31.92164982 12.48152105 -26.19921875 8.04296875 C-25.41546875 7.34171875 -24.63171875 6.64046875 -23.82421875 5.91796875 C-16.67830634 0.8137456 -8.73343684 -3.80051869 0 0 Z " fill="#B91D08" transform="translate(127.19921875,33.95703125)"/>
<path d="M0 0 C2.31 0.66 4.62 1.32 7 2 C7 2.66 7 3.32 7 4 C7.99 3.67 8.98 3.34 10 3 C14.63995194 5.78397116 16.31328949 8.93986846 18 14 C18.42191951 17.29624614 18.32427564 18.55017346 16.35546875 21.28125 C15.64003906 22.0134375 14.92460938 22.745625 14.1875 23.5 C8.51581405 29.30856646 8.51581405 29.30856646 7 37 C8.65 37.33 10.3 37.66 12 38 C12 38.66 12 39.32 12 40 C10.25 40.6875 10.25 40.6875 8 41 C5.75 39.5625 5.75 39.5625 4 38 C3.608125 38.886875 3.21625 39.77375 2.8125 40.6875 C0.85953305 44.25671545 -0.77755874 46.50993175 -4 49 C-7.50805553 49.48386973 -9.78866373 49.79363411 -12.8125 47.8125 C-17.26371519 41.01853998 -16.78477206 33.70430551 -15.27734375 26.0078125 C-13.26350851 16.8297423 -10.6188589 8.09508712 -3 2 C-2.01 2 -1.02 2 0 2 C0 1.34 0 0.68 0 0 Z " fill="#181313" transform="translate(40,84)"/>
<path d="M0 0 C4.18123444 1.51840893 6.42382506 3.74501194 8.99609375 7.29296875 C12.99433007 19.07724421 8.69003208 31.093388 3.43359375 41.79296875 C-0.14320278 47.98913648 -4.32963871 50.80614775 -11.12890625 52.73046875 C-13.81640625 52.79296875 -13.81640625 52.79296875 -16.81640625 50.79296875 C-16.62890625 48.91796875 -16.62890625 48.91796875 -15.81640625 46.79296875 C-13.25390625 45.54296875 -13.25390625 45.54296875 -10.81640625 44.79296875 C-11.31889893 43.96901611 -11.31889893 43.96901611 -11.83154297 43.12841797 C-13.03609605 40.27200876 -12.88333925 38.49954866 -12.57421875 35.42578125 C-12.4777002 34.38115723 -12.38118164 33.3365332 -12.28173828 32.26025391 C-12.16942871 31.1572998 -12.05711914 30.0543457 -11.94140625 28.91796875 C-11.15795805 20.61246386 -10.61952076 12.60676286 -11.13671875 4.26953125 C-10.81640625 1.79296875 -10.81640625 1.79296875 -9.0859375 -0.09375 C-5.662222 -1.77319736 -3.55866714 -0.9641709 0 0 Z " fill="#201F16" transform="translate(122.81640625,87.20703125)"/>
<path d="M0 0 C1.32 0.33 2.64 0.66 4 1 C4.02698189 2.62490954 4.04638757 4.24994633 4.0625 5.875 C4.07410156 6.77992187 4.08570313 7.68484375 4.09765625 8.6171875 C4 11 4 11 3 13 C3.99 13.33 4.98 13.66 6 14 C6.6875 16.0625 6.6875 16.0625 7 18 C7.99 17.34 8.98 16.68 10 16 C13.0625 15.75 13.0625 15.75 16 16 C18 18 18 18 18.046875 19.91015625 C17.94890625 20.62042969 17.8509375 21.33070312 17.75 22.0625 C17.66234375 22.77535156 17.5746875 23.48820312 17.484375 24.22265625 C17.32453125 24.80917969 17.1646875 25.39570312 17 26 C16.34 26.33 15.68 26.66 15 27 C14.73067479 31.65052872 14.73067479 31.65052872 16 36 C14.0625 35.6875 14.0625 35.6875 12 35 C11.67 34.01 11.34 33.02 11 32 C10.443125 32.515625 9.88625 33.03125 9.3125 33.5625 C7 35 7 35 4.25 34.6875 C3.5075 34.460625 2.765 34.23375 2 34 C2.2475 32.576875 2.2475 32.576875 2.5 31.125 C3.0526635 28.19831099 3.0526635 28.19831099 3 26 C1.68 26 0.36 26 -1 26 C-1.33 30.29 -1.66 34.58 -2 39 C-3.485 39.495 -3.485 39.495 -5 40 C-6.61505348 36.76989304 -6.6222077 33.1786088 -7 29.625 C-7.1641788 28.09608496 -7.33076937 26.56742661 -7.5 25.0390625 C-7.5721875 24.36053223 -7.644375 23.68200195 -7.71875 22.98291016 C-8.00516288 20.96359992 -8.50534348 18.97862606 -9 17 C-9.99 24.26 -10.98 31.52 -12 39 C-12.66 39 -13.32 39 -14 39 C-14.19681899 31.73061984 -13.63825976 24.75761861 -12.625 17.5625 C-12.49867188 16.58345703 -12.37234375 15.60441406 -12.2421875 14.59570312 C-12.04882812 13.18901367 -12.04882812 13.18901367 -11.8515625 11.75390625 C-11.73635254 10.91158447 -11.62114258 10.0692627 -11.50244141 9.20141602 C-11 7 -11 7 -9 4 C-8.01 4 -7.02 4 -6 4 C-4.85483896 13.01814321 -4.90528142 21.9280648 -5 31 C-4.34 31 -3.68 31 -3 31 C-3.01160156 30.15179688 -3.02320313 29.30359375 -3.03515625 28.4296875 C-3.21673004 4.82509506 -3.21673004 4.82509506 0 0 Z " fill="#0F0F0E" transform="translate(166,87)"/>
<path d="M0 0 C2.4375 0.8125 2.4375 0.8125 4.4375 2.8125 C5.0975 2.4825 5.7575 2.1525 6.4375 1.8125 C5.7775 10.7225 5.1175 19.6325 4.4375 28.8125 C3.7775 28.8125 3.1175 28.8125 2.4375 28.8125 C2.1075 19.9025 1.7775 10.9925 1.4375 1.8125 C0.4475 2.1425 -0.5425 2.4725 -1.5625 2.8125 C-3.90278216 9.74916366 -4.40706181 17.06557391 -5.1875 24.3125 C-5.3215625 25.51648438 -5.455625 26.72046875 -5.59375 27.9609375 C-5.92152997 30.91095726 -6.2443102 33.86143308 -6.5625 36.8125 C-5.9025 36.8125 -5.2425 36.8125 -4.5625 36.8125 C-4.51351562 35.95269531 -4.46453125 35.09289062 -4.4140625 34.20703125 C-3.89383266 25.98201815 -2.95223851 17.93504936 -1.5625 9.8125 C-1.2325 9.8125 -0.9025 9.8125 -0.5625 9.8125 C-0.06065887 14.10395349 0.4386621 18.39569646 0.9375 22.6875 C1.08058594 23.91082031 1.22367188 25.13414063 1.37109375 26.39453125 C1.50644531 27.56113281 1.64179688 28.72773437 1.78125 29.9296875 C1.90693359 31.00847168 2.03261719 32.08725586 2.16210938 33.19873047 C2.4375 35.8125 2.4375 35.8125 2.4375 37.8125 C3.4275 37.3175 3.4275 37.3175 4.4375 36.8125 C4.83129574 33.86608673 4.83129574 33.86608673 4.9375 30.4375 C5.21659739 24.14385392 5.21659739 24.14385392 7.4375 20.8125 C8.0975 21.8025 8.7575 22.7925 9.4375 23.8125 C10.4275 23.1525 11.4175 22.4925 12.4375 21.8125 C12.1075 22.72 11.7775 23.6275 11.4375 24.5625 C10.24144277 27.88295807 10.24144277 27.88295807 10.4375 31.8125 C14.17237777 31.3145163 16.24987635 30.93758244 19.4375 28.8125 C19.9325 30.7925 19.9325 30.7925 20.4375 32.8125 C21.85327477 31.62825674 21.85327477 31.62825674 21.5 28.25 C21.479375 27.115625 21.45875 25.98125 21.4375 24.8125 C22.0975 24.4825 22.7575 24.1525 23.4375 23.8125 C23.581875 24.885 23.72625 25.9575 23.875 27.0625 C24.31704706 30.60435272 24.31704706 30.60435272 25.125 33.125 C25.2796875 33.9603125 25.2796875 33.9603125 25.4375 34.8125 C24.7775 35.4725 24.1175 36.1325 23.4375 36.8125 C20.82169521 36.4855244 18.79671863 35.99210932 16.4375 34.8125 C15.2309375 35.06 15.2309375 35.06 14 35.3125 C11.4375 35.8125 11.4375 35.8125 8.4375 34.8125 C7.4475 36.4625 6.4575 38.1125 5.4375 39.8125 C3.7875 39.4825 2.1375 39.1525 0.4375 38.8125 C-0.2225 36.8325 -0.8825 34.8525 -1.5625 32.8125 C-2.2225 34.7925 -2.8825 36.7725 -3.5625 38.8125 C-6.42974686 38.23905063 -7.4239515 37.9510485 -9.5625 35.8125 C-10.5525 35.4825 -11.5425 35.1525 -12.5625 34.8125 C-11.9025 34.8125 -11.2425 34.8125 -10.5625 34.8125 C-11.2225 33.8225 -11.8825 32.8325 -12.5625 31.8125 C-12.7578125 29.55078125 -12.7578125 29.55078125 -12.6875 27.125 C-12.66945312 26.31675781 -12.65140625 25.50851563 -12.6328125 24.67578125 C-12.60960937 24.06089844 -12.58640625 23.44601563 -12.5625 22.8125 C-11.5725 23.1425 -10.5825 23.4725 -9.5625 23.8125 C-9.5625 26.1225 -9.5625 28.4325 -9.5625 30.8125 C-9.45703857 29.98000732 -9.35157715 29.14751465 -9.24291992 28.28979492 C-8.84490053 25.19656013 -8.43548189 22.10510972 -8.01831055 19.0144043 C-7.84023237 17.67744068 -7.6666867 16.33986509 -7.49780273 15.00170898 C-7.2540121 13.0764064 -6.99245913 11.15337929 -6.73046875 9.23046875 C-6.57860107 8.07313232 -6.4267334 6.9157959 -6.27026367 5.72338867 C-5.3040358 1.74948909 -4.28808718 -0.31376248 0 0 Z " fill="#0C0C0C" transform="translate(158.5625,89.1875)"/>
<path d="M0 0 C0 6.93 0 13.86 0 21 C-5 21 -5 21 -6.9375 20.5 C-9.1220948 19.88465415 -9.1220948 19.88465415 -11.9375 20 C-14.81149579 20 -17.19993636 19.57437203 -20 19 C-21.6662553 18.9629721 -23.33401319 18.95240038 -25 19 C-25 18.34 -25 17.68 -25 17 C-23.68 16.67 -22.36 16.34 -21 16 C-21.43279692 13.40321849 -21.82666698 11.30814759 -23.125 9 C-24.28427778 6.35022223 -23.75850744 4.73062678 -23 2 C-19.71303767 1.20046862 -18.28976808 0.90341064 -15 2 C-15.375 4.4375 -15.375 4.4375 -16 7 C-16.99 7.495 -16.99 7.495 -18 8 C-17.67 8.99 -17.34 9.98 -17 11 C-16.34 11 -15.68 11 -15 11 C-14.62875 9.9171875 -14.62875 9.9171875 -14.25 8.8125 C-11.03217675 1.57239769 -8.03097678 -1.33849613 0 0 Z " fill="#0C0C06" transform="translate(88,104)"/>
<path d="M0 0 C0.268125 0.969375 0.53625 1.93875 0.8125 2.9375 C1.204375 3.948125 1.59625 4.95875 2 6 C2.99 6.33 3.98 6.66 5 7 C6.86586373 9.93207158 8.02536305 11.98547781 7.9375 15.5 C6.70043413 18.79884233 5.2339936 21.26956338 3 24 C2.19433594 24.12890625 1.38867188 24.2578125 0.55859375 24.390625 C-2.14836103 24.76935334 -2.14836103 24.76935334 -3.73046875 27.03125 C-4.21128906 27.8459375 -4.69210938 28.660625 -5.1875 29.5 C-7.83728814 33.91864407 -7.83728814 33.91864407 -10 35 C-13.44153619 28.11692763 -11.12343274 17.46920125 -8.92578125 10.41796875 C-4.93699515 0 -4.93699515 0 0 0 Z " fill="#0861B7" transform="translate(42,92)"/>
<path d="M0 0 C2.1875 0.875 2.1875 0.875 3.1875 1.875 C3.22842937 4.20797433 3.22991723 6.54205225 3.1875 8.875 C2.1975 8.875 1.2075 8.875 0.1875 8.875 C0.32918137 10.31291516 0.47601043 11.7503237 0.625 13.1875 C0.70621094 13.98800781 0.78742188 14.78851563 0.87109375 15.61328125 C1.14015693 18.03587179 1.14015693 18.03587179 2.1875 20.875 C1.5275 20.875 0.8675 20.875 0.1875 20.875 C0.1875 21.535 0.1875 22.195 0.1875 22.875 C-0.8953125 22.3490625 -0.8953125 22.3490625 -2 21.8125 C-5.1725568 20.75498107 -6.62630252 21.12037428 -9.8125 21.875 C-10.8025 21.545 -11.7925 21.215 -12.8125 20.875 C-14.11414973 16.16903561 -14.0472143 13.61763355 -11.75 9.25 C-8.9517077 4.7231227 -5.83466356 -0.25931838 0 0 Z " fill="#191910" transform="translate(145.8125,103.125)"/>
<path d="M0 0 C5.88227202 1.97398336 9.02082908 3.99868941 11.87890625 9.71484375 C13.02062277 22.25500879 10.24987739 32.57810433 2.67578125 42.64453125 C-0.44466249 46.23982513 -3.07581505 48.53699343 -7.99609375 48.96484375 C-8.69734375 48.88234375 -9.39859375 48.79984375 -10.12109375 48.71484375 C-10.12109375 48.05484375 -10.12109375 47.39484375 -10.12109375 46.71484375 C-9.08984375 46.36421875 -8.05859375 46.01359375 -6.99609375 45.65234375 C-0.04389652 42.63270253 3.32762159 36.61802864 6.06640625 29.828125 C6.33453125 29.13074219 6.60265625 28.43335937 6.87890625 27.71484375 C7.29140625 26.76609375 7.70390625 25.81734375 8.12890625 24.83984375 C9.50397361 19.11039642 9.76011119 13.25478741 7.81640625 7.65234375 C5.46003922 4.98233233 5.46003922 4.98233233 -1.12109375 3.71484375 C-2.11109375 15.59484375 -3.10109375 27.47484375 -4.12109375 39.71484375 C-4.78109375 39.71484375 -5.44109375 39.71484375 -6.12109375 39.71484375 C-6.2974628 23.74364683 -6.2974628 23.74364683 -5.33203125 17.01171875 C-4.94808647 12.83098675 -5.21228427 8.62755267 -5.37890625 4.4375 C-5.29382813 3.53902344 -5.20875 2.64054687 -5.12109375 1.71484375 C-2.12109375 -0.28515625 -2.12109375 -0.28515625 0 0 Z " fill="#E0E0E0" transform="translate(119.12109375,88.28515625)"/>
<path d="M0 0 C0.33 0 0.66 0 1 0 C1.15662206 5.21619572 0.57863594 10.00308579 -0.4375 15.125 C-1.81360807 22.42069702 -2.62562996 29.57714583 -3 37 C-4.485 37.495 -4.485 37.495 -6 38 C-7.61505348 34.76989304 -7.6222077 31.1786088 -8 27.625 C-8.1641788 26.09608496 -8.33076937 24.56742661 -8.5 23.0390625 C-8.5721875 22.36053223 -8.644375 21.68200195 -8.71875 20.98291016 C-9.00516288 18.96359992 -9.50534348 16.97862606 -10 15 C-10.99 22.26 -11.98 29.52 -13 37 C-13.66 37 -14.32 37 -15 37 C-15.19681899 29.73061984 -14.63825976 22.75761861 -13.625 15.5625 C-13.49867188 14.58345703 -13.37234375 13.60441406 -13.2421875 12.59570312 C-13.04882812 11.18901367 -13.04882812 11.18901367 -12.8515625 9.75390625 C-12.73635254 8.91158447 -12.62114258 8.0692627 -12.50244141 7.20141602 C-12 5 -12 5 -10 2 C-9.01 2 -8.02 2 -7 2 C-5.85483896 11.01814321 -5.90528142 19.9280648 -6 29 C-5.34 29 -4.68 29 -4 29 C-4.02320313 28.10539062 -4.04640625 27.21078125 -4.0703125 26.2890625 C-4.20727558 17.11253623 -3.94100529 8.44501134 0 0 Z " fill="#CBCBCB" transform="translate(167,89)"/>
<path d="M0 0 C2.81042113 0.29073322 3.83347282 0.81563062 5.75 2.9375 C8.77994297 10.36086029 7.03050876 17.29241425 4.1484375 24.5078125 C0.60488798 32.19755601 0.60488798 32.19755601 -3 34 C-3.24283034 26.36433484 -2.91196935 18.95900111 -2.0625 11.375 C-1.97564941 10.59334473 -1.88879883 9.81168945 -1.79931641 9.00634766 C-1.42787747 5.86662443 -1.00255152 3.00765457 0 0 Z " fill="#DDDB48" transform="translate(120,94)"/>
<path d="M0 0 C1.32 0 2.64 0 4 0 C4.33 0.66 4.66 1.32 5 2 C5.99 1.34 6.98 0.68 8 0 C11.0625 -0.3125 11.0625 -0.3125 14 0 C14.66 0.99 15.32 1.98 16 3 C15.01 3 14.02 3 13 3 C11.32900023 3.31088368 9.66128463 3.64080332 8 4 C8.4979837 7.73487777 8.87491756 9.81237635 11 13 C10.625 15.6875 10.625 15.6875 10 18 C8.68 18 7.36 18 6 18 C6 18.66 6 19.32 6 20 C9.465 19.505 9.465 19.505 13 19 C12.67 19.99 12.34 20.98 12 22 C8.58729758 23.51675663 5.55830874 22.72783588 2 22 C1.16169704 19.07924603 0.86472639 16.47335217 0.875 13.4375 C0.87242188 12.67308594 0.86984375 11.90867187 0.8671875 11.12109375 C1 9 1 9 2 6 C1.34 6 0.68 6 0 6 C-0.2475 7.0725 -0.495 8.145 -0.75 9.25 C-2.00475313 13.01425938 -2.87958216 14.63604709 -6 17 C-6.99 17 -7.98 17 -9 17 C-7.63665947 11.79451799 -5.80236832 8.71394115 -2 5 C0.8125 4.625 0.8125 4.625 3 5 C2.04134491 2.66924071 2.04134491 2.66924071 -1 1 C-0.67 0.67 -0.34 0.34 0 0 Z M4 6 C3.67 9.3 3.34 12.6 3 16 C4.98 16 6.96 16 9 16 C7.68 12.7 6.36 9.4 5 6 C4.67 6 4.34 6 4 6 Z " fill="#050505" transform="translate(57,103)"/>
<path d="M0 0 C1 1 1 1 1.09765625 2.84765625 C1.06510417 4.8984375 1.03255208 6.94921875 1 9 C0.34 9 -0.32 9 -1 9 C-1 6.69 -1 4.38 -1 2 C-6.04489614 3.26122403 -8.05035502 4.75988534 -11 9 C-15.14591202 18.18754578 -17.26493929 30.20518214 -14 40 C-10.94918504 39.68276924 -10.09333887 39.11098219 -8.078125 36.71484375 C-7.47484375 35.79832031 -6.8715625 34.88179687 -6.25 33.9375 C-5.63640625 33.01839844 -5.0228125 32.09929687 -4.390625 31.15234375 C-3.70226562 30.08693359 -3.70226562 30.08693359 -3 29 C-2.67 29.66 -2.34 30.32 -2 31 C-2.890625 33.3125 -2.890625 33.3125 -4.25 36 C-4.68828125 36.886875 -5.1265625 37.77375 -5.578125 38.6875 C-7 41 -7 41 -10 43 C-12.4375 43.5 -12.4375 43.5 -15 43 C-18.48158083 39.51841917 -19.28025631 36.82634941 -19.4375 31.9375 C-19.00634567 21.02483524 -16.38847842 10.6931612 -9.6875 2 C-6.25348454 -0.55554639 -4.18542633 -0.48293381 0 0 Z " fill="#E8E8E8" transform="translate(45,88)"/>
<path d="M0 0 C4.23234104 0.16278235 6.3524139 0.36901868 9.4375 3.375 C12.90524373 11.42016546 11.20887057 19.20247156 8.265625 27.203125 C5.29622167 33.76513976 0.8962352 38.89827117 -5 43 C-6.32 43 -7.64 43 -9 43 C-9.33 43.66 -9.66 44.32 -10 45 C-10.66 45 -11.32 45 -12 45 C-11.67 44.01 -11.34 43.02 -11 42 C-8.4375 40.8125 -8.4375 40.8125 -6 40 C-6 39.34 -6 38.68 -6 38 C-4.948125 37.525625 -3.89625 37.05125 -2.8125 36.5625 C2.97647788 33.25786081 5.02495504 27.55368919 7.3125 21.5625 C8.41951091 15.82617075 9.02628196 10.39465791 6.6875 4.9375 C5.06009615 2.73798077 5.06009615 2.73798077 2 2 C1.34 8.93 0.68 15.86 0 23 C-0.33 23 -0.66 23 -1 23 C-2.99230315 15.0307874 -1.80241252 7.85336885 0 0 Z " fill="#222219" transform="translate(118,92)"/>
<path d="M0 0 C0 6.93 0 13.86 0 21 C-5.44328904 21 -6.20127698 20.47311819 -10 17 C-8.35 16.01 -6.7 15.02 -5 14 C-4.67 15.32 -4.34 16.64 -4 18 C-3.67 17.67 -3.34 17.34 -3 17 C-3.08984301 15.14227838 -3.24611861 13.28752015 -3.4375 11.4375 C-3.53933594 10.42558594 -3.64117187 9.41367188 -3.74609375 8.37109375 C-3.82988281 7.58863281 -3.91367188 6.80617188 -4 6 C-4.26554687 6.55429688 -4.53109375 7.10859375 -4.8046875 7.6796875 C-5.33449219 8.76636719 -5.33449219 8.76636719 -5.875 9.875 C-6.22304687 10.59429687 -6.57109375 11.31359375 -6.9296875 12.0546875 C-8 14 -8 14 -10 16 C-10.99 16 -11.98 16 -13 16 C-11.63665947 10.79451799 -9.80236832 7.71394115 -6 4 C-3.1875 3.625 -3.1875 3.625 -1 4 C-1.33 3.34 -1.66 2.68 -2 2 C-4.29781554 1.88364895 -4.29781554 1.88364895 -7 3 C-8.73620926 4.93147974 -10.19672785 6.95091569 -11.66796875 9.08984375 C-13 11 -13 11 -15 13 C-15.66 12.34 -16.32 11.68 -17 11 C-16.34 11 -15.68 11 -15 11 C-14.7525 10.278125 -14.505 9.55625 -14.25 8.8125 C-11.03217675 1.57239769 -8.03097678 -1.33849613 0 0 Z " fill="#1F1F13" transform="translate(88,104)"/>
<path d="M0 0 C1.0725 0.2475 2.145 0.495 3.25 0.75 C3.25 1.08 3.25 1.41 3.25 1.75 C2.198125 1.95625 1.14625 2.1625 0.0625 2.375 C-3.30037232 3.38521769 -5.46277913 4.76287217 -7.62109375 7.640625 C-12.58695669 16.91940003 -14.68885803 28.31302828 -13.75 38.75 C-12.45737631 41.83996833 -12.45737631 41.83996833 -10.75 43.75 C-7.41042692 44.05142916 -7.41042692 44.05142916 -3.75 42.75 C-1.59173065 39.61409875 -0.14176263 36.28392262 1.25 32.75 C1.58 32.75 1.91 32.75 2.25 32.75 C2.81902668 36.001581 2.65186174 38.08262247 0.9375 40.9296875 C-2.05354131 44.681842 -3.67259563 46.55247587 -8.5 47.4375 C-12.95092379 46.49595843 -12.95092379 46.49595843 -14.75 43.75 C-19.43101738 33.44828145 -16.10870939 22.02178114 -12.75 11.75 C-11.36686432 8.77865804 -9.81371985 6.28637827 -7.75 3.75 C-6.821875 2.4815625 -6.821875 2.4815625 -5.875 1.1875 C-3.75 -0.25 -3.75 -0.25 0 0 Z " fill="#051422" transform="translate(40.75,86.25)"/>
<path d="M0 0 C2.4375 0.8125 2.4375 0.8125 4.4375 2.8125 C5.0975 2.4825 5.7575 2.1525 6.4375 1.8125 C5.7775 10.7225 5.1175 19.6325 4.4375 28.8125 C3.7775 28.8125 3.1175 28.8125 2.4375 28.8125 C2.1075 19.9025 1.7775 10.9925 1.4375 1.8125 C0.4475 2.1425 -0.5425 2.4725 -1.5625 2.8125 C-4.21182075 10.44877745 -4.65031952 18.81636473 -5.5625 26.8125 C-7.07861328 25.61132812 -7.07861328 25.61132812 -8.5625 23.8125 C-8.67529297 21.59179688 -8.67529297 21.59179688 -8.3046875 19.03125 C-8.17320312 18.10699219 -8.04171875 17.18273437 -7.90625 16.23046875 C-7.7515625 15.26753906 -7.596875 14.30460937 -7.4375 13.3125 C-7.30601562 12.34957031 -7.17453125 11.38664062 -7.0390625 10.39453125 C-5.41369187 -0.3961238 -5.41369187 -0.3961238 0 0 Z " fill="#050402" transform="translate(158.5625,89.1875)"/>
<path d="M0 0 C0.66 0.33 1.32 0.66 2 1 C2.83592101 13.88711565 -0.26428305 26.46097277 -8 37 C-11.99140906 40.59226815 -16.53339098 43 -22 43 C-23.875 41.5625 -23.875 41.5625 -25 40 C-23 39 -23 39 -20.3125 39.25 C-15.79323677 38.90892353 -13.11812537 37.12514818 -10 34 C-2.08585017 23.55258259 -0.53532693 12.81092731 0 0 Z " fill="#19190C" transform="translate(131,97)"/>
<path d="M0 0 C0.33 0 0.66 0 1 0 C1.15662206 5.21619572 0.57863594 10.00308579 -0.4375 15.125 C-1.81360807 22.42069702 -2.62562996 29.57714583 -3 37 C-4.485 37.495 -4.485 37.495 -6 38 C-9.46392041 31.07215919 -8.13467011 20.60137932 -8 13 C-7.67 13 -7.34 13 -7 13 C-6.08342019 18.38490641 -5.88861841 23.54230189 -6 29 C-5.34 29 -4.68 29 -4 29 C-4.02320313 28.10539062 -4.04640625 27.21078125 -4.0703125 26.2890625 C-4.20727558 17.11253623 -3.94100529 8.44501134 0 0 Z " fill="#EEEEEE" transform="translate(167,89)"/>
<path d="M0 0 C1.32 0.33 2.64 0.66 4 1 C4.02698189 2.62490954 4.04638757 4.24994633 4.0625 5.875 C4.07410156 6.77992187 4.08570313 7.68484375 4.09765625 8.6171875 C4 11 4 11 3 13 C3.99 13.33 4.98 13.66 6 14 C6.75 16.6875 6.75 16.6875 7 20 C5.25 22.875 5.25 22.875 3 25 C2.01 25 1.02 25 0 25 C-1.22040956 21.43264898 -0.77562768 18.78851867 -0.0625 15.125 C0.73366225 11.0018286 1.10662525 7.20228941 1 3 C0.34 4.32 -0.32 5.64 -1 7 C-1.625 5.1875 -1.625 5.1875 -2 3 C-1.34 2.01 -0.68 1.02 0 0 Z " fill="#0D0D09" transform="translate(166,87)"/>
<path d="M0 0 C1.32 0 2.64 0 4 0 C4 0.99 4 1.98 4 3 C3.278125 3.185625 2.55625 3.37125 1.8125 3.5625 C-2.8618571 5.95161585 -5.36393917 10.09181752 -7 15 C-1.69278023 12.64123566 -0.16360269 9.08869684 2 4 C2.66 4 3.32 4 4 4 C4 8.62 4 13.24 4 18 C1 17 1 17 -1 15 C-1.99 15.66 -2.98 16.32 -4 17 C-6.6875 16.625 -6.6875 16.625 -9 16 C-8.65988792 9.1977583 -4.64401598 4.64401598 0 0 Z " fill="#D8D8D8" transform="translate(143,105)"/>
<path d="M0 0 C1.67542976 0.28604898 3.34385343 0.61781233 5 1 C5 1.66 5 2.32 5 3 C4.113125 3.165 3.22625 3.33 2.3125 3.5 C-2.81600043 5.82233982 -4.56256787 10.12513573 -7 15 C-1.69278023 12.64123566 -0.16360269 9.08869684 2 4 C2.33 4 2.66 4 3 4 C3.06058594 4.84304687 3.12117187 5.68609375 3.18359375 6.5546875 C3.26738281 7.65039062 3.35117188 8.74609375 3.4375 9.875 C3.51871094 10.96554688 3.59992188 12.05609375 3.68359375 13.1796875 C3.83001703 15.94728971 3.83001703 15.94728971 5 18 C3.0625 17.6875 3.0625 17.6875 1 17 C0.67 16.01 0.34 15.02 0 14 C-0.556875 14.515625 -1.11375 15.03125 -1.6875 15.5625 C-4 17 -4 17 -6.75 16.6875 C-7.4925 16.460625 -8.235 16.23375 -9 16 C-8.83004579 9.37178574 -4.52530801 4.52530801 0 0 Z " fill="#E2E2E2" transform="translate(177,105)"/>
<path d="M0 0 C0 0.66 0 1.32 0 2 C-0.886875 2.165 -1.77375 2.33 -2.6875 2.5 C-7.81600043 4.82233982 -9.56256787 9.12513573 -12 14 C-6.69278023 11.64123566 -5.16360269 8.08869684 -3 3 C-2.67 3 -2.34 3 -2 3 C-1.93941406 3.84304687 -1.87882812 4.68609375 -1.81640625 5.5546875 C-1.73261719 6.65039062 -1.64882812 7.74609375 -1.5625 8.875 C-1.48128906 9.96554688 -1.40007812 11.05609375 -1.31640625 12.1796875 C-1.16998297 14.94728971 -1.16998297 14.94728971 0 17 C-1.9375 16.6875 -1.9375 16.6875 -4 16 C-4.33 15.01 -4.66 14.02 -5 13 C-5.556875 13.515625 -6.11375 14.03125 -6.6875 14.5625 C-9 16 -9 16 -11.75 15.6875 C-12.4925 15.460625 -13.235 15.23375 -14 15 C-13.83648055 8.62274162 -10.12448738 4.52455313 -6 0 C-3.50907189 -1.24546405 -2.58919267 -0.7767578 0 0 Z " fill="#E2E2E2" transform="translate(87,106)"/>
<path d="M0 0 C0 0.66 0 1.32 0 2 C-0.86625 2.12375 -1.7325 2.2475 -2.625 2.375 C-7.71028127 4.82346876 -9.46024892 9.11863445 -12 14 C-9.53348211 13.67453428 -9.53348211 13.67453428 -7 13 C-5.70957237 10.73398135 -5.70957237 10.73398135 -5 8 C-4.33333333 6.33333333 -3.66666667 4.66666667 -3 3 C-2.34 3 -1.68 3 -1 3 C-1.01160156 3.84304687 -1.02320313 4.68609375 -1.03515625 5.5546875 C-1.04417969 6.65039062 -1.05320312 7.74609375 -1.0625 8.875 C-1.07410156 9.96554688 -1.08570313 11.05609375 -1.09765625 12.1796875 C-1.19744303 14.95177546 -1.19744303 14.95177546 0 17 C-0.99 17 -1.98 17 -3 17 C-3.66 15.68 -4.32 14.36 -5 13 C-5.556875 13.515625 -6.11375 14.03125 -6.6875 14.5625 C-9 16 -9 16 -11.75 15.6875 C-12.4925 15.460625 -13.235 15.23375 -14 15 C-13.83648055 8.62274162 -10.12448738 4.52455313 -6 0 C-3.50907189 -1.24546405 -2.58919267 -0.7767578 0 0 Z " fill="#D3D3D3" transform="translate(60,106)"/>
<path d="M0 0 C0.66 0 1.32 0 2 0 C1.68872484 1.58357459 1.37592711 3.16684993 1.0625 4.75 C0.88847656 5.63171875 0.71445312 6.5134375 0.53515625 7.421875 C0 10 0 10 -0.5625 11.875 C-1.20770782 15.00886655 -1.09207285 18.05613226 -1.0625 21.25 C-1.05347656 22.51328125 -1.04445313 23.7765625 -1.03515625 25.078125 C-1.02355469 26.04234375 -1.01195312 27.0065625 -1 28 C-0.34 28 0.32 28 1 28 C2.36277086 26.21034453 2.36277086 26.21034453 3.625 24 C4.07101563 23.2575 4.51703125 22.515 4.9765625 21.75 C5.31429687 21.1725 5.65203125 20.595 6 20 C6.99 20.33 7.98 20.66 9 21 C7.93071226 22.65499311 6.84402808 24.29875626 5.75 25.9375 C5.14671875 26.85402344 4.5434375 27.77054688 3.921875 28.71484375 C1.90666113 31.11098219 1.05081496 31.68276924 -2 32 C-5.98784525 25.60349622 -4.74136152 16.19752445 -3.1015625 9.125 C-2.14925197 6.04518723 -1.1389968 3.01529064 0 0 Z " fill="#0C1218" transform="translate(33,97)"/>
<path d="M0 0 C0.99 0 1.98 0 3 0 C3.06058594 0.75925781 3.12117188 1.51851563 3.18359375 2.30078125 C3.26738281 3.29464844 3.35117187 4.28851563 3.4375 5.3125 C3.55931641 6.79169922 3.55931641 6.79169922 3.68359375 8.30078125 C3.91812559 11.09375599 3.91812559 11.09375599 5 14 C8.05081496 13.68276924 8.90666113 13.11098219 10.921875 10.71484375 C11.52515625 9.79832031 12.1284375 8.88179687 12.75 7.9375 C13.36359375 7.01839844 13.9771875 6.09929687 14.609375 5.15234375 C15.06828125 4.44207031 15.5271875 3.73179688 16 3 C16.33 3.66 16.66 4.32 17 5 C16.109375 7.3125 16.109375 7.3125 14.75 10 C14.31171875 10.886875 13.8734375 11.77375 13.421875 12.6875 C12 15 12 15 9 17 C6.5625 17.5 6.5625 17.5 4 17 C0.20649955 13.20649955 -0.24312976 10.4494336 -0.25 5.125 C-0.18619084 3.41582604 -0.10933663 1.70686635 0 0 Z " fill="#ECECEC" transform="translate(26,114)"/>
<path d="M0 0 C0.33 0 0.66 0 1 0 C0.85960448 3.97937771 0.71168681 7.95844294 0.5625 11.9375 C0.52318359 13.05447266 0.48386719 14.17144531 0.44335938 15.32226562 C0.20419096 21.59583708 -0.21391779 27.77079389 -1 34 C-1.66 34 -2.32 34 -3 34 C-3.20023914 25.63445387 -3.1224874 17.4368291 -2.0625 9.125 C-1.97564941 8.44179687 -1.88879883 7.75859375 -1.79931641 7.0546875 C-1.14419181 2.28838363 -1.14419181 2.28838363 0 0 Z " fill="#E5E5E5" transform="translate(116,94)"/>
<path d="M0 0 C0.99 0.33 1.98 0.66 3 1 C3 3.31 3 5.62 3 8 C3.12375 6.865625 3.2475 5.73125 3.375 4.5625 C3.58125 3.386875 3.7875 2.21125 4 1 C4.66 0.67 5.32 0.34 6 0 C6 4.62 6 9.24 6 14 C6.66 14 7.32 14 8 14 C8.33 13.01 8.66 12.02 9 11 C9.33 11.99 9.66 12.98 10 14 C9.67 14.66 9.34 15.32 9 16 C6.13275314 15.42655063 5.1385485 15.1385485 3 13 C2.01 12.67 1.02 12.34 0 12 C0.66 12 1.32 12 2 12 C1.34 11.01 0.68 10.02 0 9 C-0.1953125 6.73828125 -0.1953125 6.73828125 -0.125 4.3125 C-0.10695312 3.50425781 -0.08890625 2.69601563 -0.0703125 1.86328125 C-0.04710937 1.24839844 -0.02390625 0.63351563 0 0 Z " fill="#010101" transform="translate(146,112)"/>
<path d="M0 0 C0.33 0.66 0.66 1.32 1 2 C1.66 2.33 2.32 2.66 3 3 C2.505 3.7425 2.505 3.7425 2 4.5 C0.72655978 7.14468439 0.72655978 7.14468439 1.3125 10.8125 C1.41349627 13.64571118 1.19067608 14.73285225 -0.48046875 17.07421875 C-2.24949514 18.87242496 -3.95638905 20.52046266 -6 22 C-6.66 22 -7.32 22 -8 22 C-6.13168762 17.27273518 -4.12832388 12.60713923 -2.12109375 7.9375 C-1.10445782 5.27370133 -0.45915231 2.80650403 0 0 Z " fill="#D3D240" transform="translate(132,110)"/>
<path d="M0 0 C0.33 0 0.66 0 1 0 C1.33 1.65 1.66 3.3 2 5 C3.3921875 4.7525 3.3921875 4.7525 4.8125 4.5 C8 4 8 4 11 4 C11.33 4.66 11.66 5.32 12 6 C12.99 6 13.98 6 15 6 C15 6.66 15 7.32 15 8 C14.34 8 13.68 8 13 8 C13 8.66 13 9.32 13 10 C12.278125 9.649375 11.55625 9.29875 10.8125 8.9375 C7.6399432 7.87998107 6.18619748 8.24537428 3 9 C2.01 8.67 1.02 8.34 0 8 C-0.38063221 5.6739143 -0.71269945 3.33944736 -1 1 C-0.67 0.67 -0.34 0.34 0 0 Z " fill="#0D0D0A" transform="translate(133,116)"/>
<path d="M0 0 C1.67542976 0.28604898 3.34385343 0.61781233 5 1 C4.67 1.66 4.34 2.32 4 3 C3.01 3 2.02 3 1 3 C1.46970726 5.1919672 1.9795266 6.96266615 3.0625 8.9375 C4.2146905 11.4723191 4.29011415 13.24391561 4 16 C2 18 2 18 -0.625 18.125 C-1.40875 18.08375 -2.1925 18.0425 -3 18 C-3 17.34 -3 16.68 -3 16 C-1.68 15.67 -0.36 15.34 1 15 C0.56720308 12.40321849 0.17333302 10.30814759 -1.125 8 C-2.29386181 5.32831586 -1.81640205 3.74607961 -1 1 C-0.67 0.67 -0.34 0.34 0 0 Z " fill="#DEDEDE" transform="translate(66,105)"/>
<path d="M0 0 C0.33 0 0.66 0 1 0 C1.1754368 5.50432961 0.5274161 10.53662347 -0.5 15.9375 C-0.71462891 17.10635742 -0.71462891 17.10635742 -0.93359375 18.29882812 C-1.28354724 20.2002421 -1.64099665 22.10027393 -2 24 C-5.40435973 18.8934604 -3.83331738 12.88613067 -3 7 C-2.2197733 4.39650671 -1.3099899 2.39215547 0 0 Z " fill="#D8D8D8" transform="translate(167,89)"/>
<path d="M0 0 C0.66 0 1.32 0 2 0 C2 4.62 2 9.24 2 14 C-1 13 -1 13 -3 11 C-3.99 11 -4.98 11 -6 11 C-4.02 7.37 -2.04 3.74 0 0 Z " fill="#DEDEDE" transform="translate(145,109)"/>
<path d="M0 0 C0.66 0 1.32 0 2 0 C1.49513741 4.34181831 0.76196064 7.5475492 -2 11 C-4.6875 11.8125 -4.6875 11.8125 -7 12 C-5.6393389 6.80474854 -3.64232612 3.82444243 0 0 Z " fill="#151515" transform="translate(55,108)"/>
<path d="M0 0 C0.99 0.33 1.98 0.66 3 1 C3.75 3.6875 3.75 3.6875 4 7 C2.1875 9.875 2.1875 9.875 0 12 C-0.66 12 -1.32 12 -2 12 C-1.85962479 10.18706911 -1.71255111 8.3746557 -1.5625 6.5625 C-1.48128906 5.55316406 -1.40007812 4.54382813 -1.31640625 3.50390625 C-1 1 -1 1 0 0 Z " fill="#DCDA44" transform="translate(169,100)"/>
<path d="M0 0 C0.66 0 1.32 0 2 0 C1.98839844 0.84304687 1.97679687 1.68609375 1.96484375 2.5546875 C1.95582031 3.65039062 1.94679688 4.74609375 1.9375 5.875 C1.92589844 6.96554688 1.91429687 8.05609375 1.90234375 9.1796875 C1.80255697 11.95177546 1.80255697 11.95177546 3 14 C2.01 14 1.02 14 0 14 C-0.66 12.68 -1.32 11.36 -2 10 C-2.598125 10.515625 -3.19625 11.03125 -3.8125 11.5625 C-4.534375 12.036875 -5.25625 12.51125 -6 13 C-6.99 12.67 -7.98 12.34 -9 12 C-8.21625 11.773125 -7.4325 11.54625 -6.625 11.3125 C-3.83591898 10.2413615 -3.83591898 10.2413615 -2.8125 7.6875 C-2.4103125 6.3571875 -2.4103125 6.3571875 -2 5 C-1.33333333 3.33333333 -0.66666667 1.66666667 0 0 Z " fill="#E8E8E8" transform="translate(57,109)"/>
<path d="M0 0 C1.67542976 0.28604898 3.34385343 0.61781233 5 1 C5 1.66 5 2.32 5 3 C4.113125 3.165 3.22625 3.33 2.3125 3.5 C-1.74508152 5.3373954 -2.75376931 7.22084736 -4.82421875 11.02734375 C-6.01256427 13.0210796 -7.29793865 14.43528077 -9 16 C-8.83004579 9.37178574 -4.52530801 4.52530801 0 0 Z " fill="#D6D6D6" transform="translate(177,105)"/>
<path d="M0 0 C0 0.66 0 1.32 0 2 C-0.886875 2.165 -1.77375 2.33 -2.6875 2.5 C-6.74508152 4.3373954 -7.75376931 6.22084736 -9.82421875 10.02734375 C-11.01256427 12.0210796 -12.29793865 13.43528077 -14 15 C-13.83648055 8.62274162 -10.12448738 4.52455313 -6 0 C-3.50907189 -1.24546405 -2.58919267 -0.7767578 0 0 Z " fill="#DBDBDB" transform="translate(87,106)"/>
<path d="M0 0 C0.33 0 0.66 0 1 0 C1.02710123 2.5625718 1.04688771 5.12485365 1.0625 7.6875 C1.07087891 8.40873047 1.07925781 9.12996094 1.08789062 9.87304688 C1.10543632 13.71555382 0.93524221 17.26639526 0 21 C-0.66 21 -1.32 21 -2 21 C-2.30784708 4.61569416 -2.30784708 4.61569416 0 0 Z " fill="#E5E5E5" transform="translate(154,105)"/>
<path d="M0 0 C0.33 0 0.66 0 1 0 C1.144375 1.0725 1.28875 2.145 1.4375 3.25 C1.87954706 6.79185272 1.87954706 6.79185272 2.6875 9.3125 C2.790625 9.869375 2.89375 10.42625 3 11 C2.34 11.66 1.68 12.32 1 13 C-1.5 12.8125 -1.5 12.8125 -4 12 C-4.66 11.01 -5.32 10.02 -6 9 C-4.68 9 -3.36 9 -2 9 C-1.67 8.67 -1.34 8.34 -1 8 C-1 6.845 -1 5.69 -1 4.5 C-1 1 -1 1 0 0 Z " fill="#040404" transform="translate(181,113)"/>
<path d="M0 0 C1 3 1 3 1 7 C2.65 7.33 4.3 7.66 6 8 C6 8.66 6 9.32 6 10 C3.15038233 11.16095535 2.16054927 11.06567925 -0.75 9.875 C-3 8 -3 8 -3.3125 5.3125 C-3.209375 4.549375 -3.10625 3.78625 -3 3 C-3.99 2.67 -4.98 2.34 -6 2 C-4.02 1.34 -2.04 0.68 0 0 Z " fill="#020508" transform="translate(46,114)"/>
<path d="M0 0 C0.33 0 0.66 0 1 0 C0.67 6.6 0.34 13.2 0 20 C-0.66 20 -1.32 20 -2 20 C-2 14.06 -2 8.12 -2 2 C-1.34 2 -0.68 2 0 2 C0 1.34 0 0.68 0 0 Z " fill="#2A2A2A" transform="translate(163,98)"/>
<path d="M0 0 C0 2.31 0 4.62 0 7 C0.99 6.67 1.98 6.34 3 6 C3 6.99 3 7.98 3 9 C-0.875 8.125 -0.875 8.125 -2 7 C-2.04063832 5.33382885 -2.042721 3.66611905 -2 2 C-5.36720387 3.39332574 -6.9859524 4.9789286 -9 8 C-9 4 -9 4 -7.3125 1.75 C-4.60609252 -0.29809215 -3.31152874 -0.36794764 0 0 Z " fill="#05080B" transform="translate(44,90)"/>
<path d="M0 0 C0.66 0 1.32 0 2 0 C1.2036893 7.69767006 0.12178733 15.34352921 -1 23 C-1.33 23 -1.66 23 -2 23 C-2.3690205 7.25512528 -2.3690205 7.25512528 0 0 Z " fill="#EDEDED" transform="translate(29,101)"/>
<path d="M0 0 C1.32 0 2.64 0 4 0 C4 1.65 4 3.3 4 5 C4.66 5.33 5.32 5.66 6 6 C2.37 6 -1.26 6 -5 6 C-4.34 5.67 -3.68 5.34 -3 5 C-2.34786708 2.97536745 -2.34786708 2.97536745 -2 1 C-1.67 1.33 -1.34 1.66 -1 2 C-0.67 1.34 -0.34 0.68 0 0 Z " fill="#609BD3" transform="translate(90,179)"/>
<path d="M0 0 C1.0725 0.2475 2.145 0.495 3.25 0.75 C3.25 1.08 3.25 1.41 3.25 1.75 C2.198125 1.95625 1.14625 2.1625 0.0625 2.375 C-5.49253205 3.93805558 -7.65051071 8.10076606 -10.75 12.75 C-11.08 11.76 -11.41 10.77 -11.75 9.75 C-10.0625 6.8125 -10.0625 6.8125 -7.75 3.75 C-7.151875 2.945625 -6.55375 2.14125 -5.9375 1.3125 C-3.75 -0.25 -3.75 -0.25 0 0 Z " fill="#262A2E" transform="translate(40.75,86.25)"/>
<path d="M0 0 C0.33 1.32 0.66 2.64 1 4 C0.01 4.66 -0.98 5.32 -2 6 C-2 7.32 -2 8.64 -2 10 C-4.0625 7.75 -4.0625 7.75 -6 5 C-5.75 2.6875 -5.75 2.6875 -5 1 C-3.35 0.67 -1.7 0.34 0 0 Z " fill="#252519" transform="translate(72,106)"/>
<path d="M0 0 C0.33 0 0.66 0 1 0 C1.57227508 3.27014332 1.41082844 5.33552965 -0.34765625 8.1796875 C-4.93433718 13.8449945 -4.93433718 13.8449945 -9.4375 14.5 C-10.283125 14.335 -11.12875 14.17 -12 14 C-11.1646875 13.6596875 -11.1646875 13.6596875 -10.3125 13.3125 C-4.61913493 10.08113064 -2.20060673 5.90689175 0 0 Z " fill="#0E1216" transform="translate(42,119)"/>
<path d="M0 0 C0.33 0.99 0.66 1.98 1 3 C-2.03797468 8.62587904 -2.03797468 8.62587904 -5.25 9.875 C-5.8275 9.91625 -6.405 9.9575 -7 10 C-5.76075855 5.04303419 -4.21422242 2.88341534 0 0 Z " fill="#090909" transform="translate(177,110)"/>
<path d="M0 0 C0.763125 0.20625 1.52625 0.4125 2.3125 0.625 C2.3125 1.615 2.3125 2.605 2.3125 3.625 C0.9925 3.625 -0.3275 3.625 -1.6875 3.625 C-2.0175 4.945 -2.3475 6.265 -2.6875 7.625 C-3.3475 7.625 -4.0075 7.625 -4.6875 7.625 C-5.0175 5.645 -5.3475 3.665 -5.6875 1.625 C-2.6875 -0.375 -2.6875 -0.375 0 0 Z " fill="#D1D1D1" transform="translate(119.6875,88.375)"/>
<path d="M0 0 C0.66 0.33 1.32 0.66 2 1 C0.63016497 4.16115776 0.0109362 4.9927092 -3 7 C-4.32 7 -5.64 7 -7 7 C-7.33 7.66 -7.66 8.32 -8 9 C-8.66 9 -9.32 9 -10 9 C-9.67 8.01 -9.34 7.02 -9 6 C-6.4375 4.8125 -6.4375 4.8125 -4 4 C-4 3.34 -4 2.68 -4 2 C-2.125 0.9375 -2.125 0.9375 0 0 Z " fill="#333318" transform="translate(116,128)"/>
<path d="M0 0 C0.99 0 1.98 0 3 0 C3.33 4.62 3.66 9.24 4 14 C3.01 14.495 3.01 14.495 2 15 C-0.02558881 11.65060119 -0.21738987 9.13037449 -0.125 5.25 C-0.09792969 3.77273437 -0.09792969 3.77273437 -0.0703125 2.265625 C-0.04710938 1.51796875 -0.02390625 0.7703125 0 0 Z " fill="#B9B9B9" transform="translate(26,114)"/>
<path d="M0 0 C0.66 0.66 1.32 1.32 2 2 C1.9765625 5.2578125 1.9765625 5.2578125 1.625 9.125 C1.51414063 10.40632813 1.40328125 11.68765625 1.2890625 13.0078125 C1.19367188 13.99523437 1.09828125 14.98265625 1 16 C-0.55078125 14.91796875 -0.55078125 14.91796875 -2 13 C-1.85546875 9.86328125 -1.85546875 9.86328125 -1.1875 6.3125 C-0.97480469 5.13300781 -0.76210937 3.95351562 -0.54296875 2.73828125 C-0.36378906 1.83464844 -0.18460938 0.93101563 0 0 Z " fill="#2B2B1D" transform="translate(152,100)"/>
<path d="M0 0 C3.87187551 1.25574341 6.06837517 2.34007927 8 6 C8.1875 9.25 8.1875 9.25 8 12 C6 9 6 9 4.5625 6.4375 C3.0772081 3.76176498 3.0772081 3.76176498 0 2 C0 1.34 0 0.68 0 0 Z " fill="#EAEAEA" transform="translate(122,90)"/>
<path d="M0 0 C0.33 0.99 0.66 1.98 1 3 C-2.03797468 8.62587904 -2.03797468 8.62587904 -5.25 9.875 C-5.8275 9.91625 -6.405 9.9575 -7 10 C-6.34 8.35 -5.68 6.7 -5 5 C-4.34 5.33 -3.68 5.66 -3 6 C-2.814375 5.071875 -2.814375 5.071875 -2.625 4.125 C-2 2 -2 2 0 0 Z " fill="#0A0A0A" transform="translate(82,110)"/>
<path d="M0 0 C0.66 0 1.32 0 2 0 C1.71572583 1.58467728 1.42225182 3.1677057 1.125 4.75 C0.88136719 6.07257813 0.88136719 6.07257813 0.6328125 7.421875 C0.03203736 9.86947744 -0.77997117 11.80599857 -2 14 C-3.55577239 8.34264585 -2.24281523 5.20333134 0 0 Z " fill="#151D26" transform="translate(33,97)"/>
<path d="M0 0 C1.15006091 3.37299744 0.85199953 5.34853215 -0.3125 8.6875 C-0.57675781 9.47511719 -0.84101563 10.26273438 -1.11328125 11.07421875 C-2 13 -2 13 -4 14 C-3.71715982 12.22773547 -3.42339502 10.457212 -3.125 8.6875 C-2.96257813 7.70136719 -2.80015625 6.71523437 -2.6328125 5.69921875 C-2 3 -2 3 0 0 Z " fill="#0B141C" transform="translate(29,97)"/>
<path d="M0 0 C2.125 0.375 2.125 0.375 4 1 C3.319375 1.495 3.319375 1.495 2.625 2 C0.15680026 5.0377843 -0.18843144 8.19187061 -1 12 C-1.33 12 -1.66 12 -2 12 C-2.05395478 10.37536158 -2.09277195 8.75021459 -2.125 7.125 C-2.14820313 6.22007813 -2.17140625 5.31515625 -2.1953125 4.3828125 C-2 2 -2 2 0 0 Z " fill="#111111" transform="translate(155,90)"/>
<path d="M0 0 C2.35171131 0.59861742 4.6859378 1.26924352 7 2 C8.35439668 4.70879335 8.06501451 7.00933268 8 10 C6.66666667 8 5.33333333 6 4 4 C1.43717258 3.27034634 1.43717258 3.27034634 -1 3 C-0.67 2.01 -0.34 1.02 0 0 Z " fill="#020202" transform="translate(40,84)"/>
<path d="M0 0 C0.33 0.66 0.66 1.32 1 2 C-0.37707107 5.14759102 -1.56159764 7.56159764 -4 10 C-4.99 10 -5.98 10 -7 10 C-7 9.01 -7 8.02 -7 7 C-5.35 6.67 -3.7 6.34 -2 6 C-1.855625 5.195625 -1.71125 4.39125 -1.5625 3.5625 C-1 1 -1 1 0 0 Z " fill="#10100F" transform="translate(143,110)"/>
<path d="M0 0 C1.66611905 -0.042721 3.33382885 -0.04063832 5 0 C6 1 6 1 6.09765625 2.84765625 C6.06510417 4.8984375 6.03255208 6.94921875 6 9 C5.34 9 4.68 9 4 9 C4 6.69 4 4.38 4 2 C2.35 2 0.7 2 -1 2 C-0.67 1.34 -0.34 0.68 0 0 Z " fill="#DEDEDE" transform="translate(40,88)"/>
<path d="M0 0 C1.23556641 0.01740234 1.23556641 0.01740234 2.49609375 0.03515625 C3.32238281 0.04417969 4.14867188 0.05320313 5 0.0625 C5.63808594 0.07410156 6.27617188 0.08570313 6.93359375 0.09765625 C6.60359375 1.08765625 6.27359375 2.07765625 5.93359375 3.09765625 C3.12109375 3.78515625 3.12109375 3.78515625 -0.06640625 4.09765625 C-1.94140625 2.66015625 -1.94140625 2.66015625 -3.06640625 1.09765625 C-2.06640625 0.09765625 -2.06640625 0.09765625 0 0 Z " fill="#030303" transform="translate(109.06640625,135.90234375)"/>
<path d="M0 0 C0.99 0.33 1.98 0.66 3 1 C2.07456291 2.34173403 1.13422595 3.67320159 0.1875 5 C-0.33457031 5.7425 -0.85664062 6.485 -1.39453125 7.25 C-1.92433594 7.8275 -2.45414062 8.405 -3 9 C-3.99 9 -4.98 9 -6 9 C-4.02 6.03 -2.04 3.06 0 0 Z " fill="#181812" transform="translate(122,121)"/>
<path d="M0 0 C0.33 0.99 0.66 1.98 1 3 C1.66 3.33 2.32 3.66 3 4 C1.625 6.5 1.625 6.5 0 9 C-0.66 9 -1.32 9 -2 9 C-2.66 7.35 -3.32 5.7 -4 4 C-3.01 4 -2.02 4 -1 4 C-0.67 2.68 -0.34 1.36 0 0 Z " fill="#C6C440" transform="translate(73,106)"/>
<path d="M0 0 C0.66 0.33 1.32 0.66 2 1 C1.34 2.65 0.68 4.3 0 6 C1.32 6.33 2.64 6.66 4 7 C2.35 7.33 0.7 7.66 -1 8 C-1.625 5.6875 -1.625 5.6875 -2 3 C-1.34 2.01 -0.68 1.02 0 0 Z " fill="#EDEDED" transform="translate(136,114)"/>
<path d="M0 0 C0.66 0.99 1.32 1.98 2 3 C2.99 3 3.98 3 5 3 C5 3.99 5 4.98 5 6 C3.02 6 1.04 6 -1 6 C-0.67 4.02 -0.34 2.04 0 0 Z " fill="#93BBE1" transform="translate(105,179)"/>
<path d="M0 0 C0.66 0.33 1.32 0.66 2 1 C1.25 6.75 1.25 6.75 -1 9 C-1.66 9 -2.32 9 -3 9 C-2.01 6.03 -1.02 3.06 0 0 Z " fill="#D5D5D5" transform="translate(126,116)"/>
<path d="M0 0 C0.33 0.66 0.66 1.32 1 2 C0.06421005 4.35981813 -0.93347808 6.69631264 -2 9 C-2.99 9 -3.98 9 -5 9 C-3.7508258 5.54074837 -2.32472205 2.85306797 0 0 Z " fill="#DEDEDE" transform="translate(42,117)"/>
<path d="M0 0 C3.16717283 1.58358642 4.73268318 2.45263699 6.3125 5.6875 C6.539375 6.450625 6.76625 7.21375 7 8 C6.01 8.495 6.01 8.495 5 9 C1.125 3.375 1.125 3.375 0 0 Z " fill="#1A1A0E" transform="translate(125,89)"/>
<path d="M0 0 C4.455 0.99 4.455 0.99 9 2 C8.67 2.99 8.34 3.98 8 5 C1.125 2.25 1.125 2.25 0 0 Z " fill="#2F2F15" transform="translate(116,86)"/>
<path d="M0 0 C0.66 0 1.32 0 2 0 C1.67 3.63 1.34 7.26 1 11 C0.67 11 0.34 11 0 11 C-0.144375 10.05125 -0.28875 9.1025 -0.4375 8.125 C-0.82935399 5.1065506 -0.82935399 5.1065506 -2 3 C-1.34 2.01 -0.68 1.02 0 0 Z " fill="#B7B7B7" transform="translate(145,109)"/>
<path d="M0 0 C1.32 0.33 2.64 0.66 4 1 C3.67 2.65 3.34 4.3 3 6 C2.34 5.01 1.68 4.02 1 3 C0.34 4.32 -0.32 5.64 -1 7 C-1.625 5.1875 -1.625 5.1875 -2 3 C-1.34 2.01 -0.68 1.02 0 0 Z " fill="#291B19" transform="translate(166,87)"/>
<path d="M0 0 C-0.33 0.99 -0.66 1.98 -1 3 C-1.66 3 -2.32 3 -3 3 C-2.67 4.98 -2.34 6.96 -2 9 C-3.5 7.75 -3.5 7.75 -5 6 C-5 4.68 -5 3.36 -5 2 C-2 0 -2 0 0 0 Z " fill="#101009" transform="translate(117,87)"/>
<path d="M0 0 C0.5775 0.61875 1.155 1.2375 1.75 1.875 C3.80249821 3.81347053 5.43366582 4.90014249 8 6 C5.6875 6.6875 5.6875 6.6875 3 7 C1.1875 5.8125 1.1875 5.8125 0 4 C0 2.68 0 1.36 0 0 Z " fill="#222426" transform="translate(26,126)"/>
<path d="M0 0 C0.99 0.33 1.98 0.66 3 1 C1.68 3.31 0.36 5.62 -1 8 C-1.93065133 5.39417629 -2.14917407 4.35801776 -1.0625 1.75 C-0.711875 1.1725 -0.36125 0.595 0 0 Z " fill="#CECECE" transform="translate(170,113)"/>
<path d="M0 0 C0.99 0.33 1.98 0.66 3 1 C1.68 3.31 0.36 5.62 -1 8 C-1.93065133 5.39417629 -2.14917407 4.35801776 -1.0625 1.75 C-0.711875 1.1725 -0.36125 0.595 0 0 Z " fill="#CECECE" transform="translate(75,113)"/>
<path d="M0 0 C0.66 0 1.32 0 2 0 C2 0.66 2 1.32 2 2 C0.66666667 3.33333333 -0.66666667 4.66666667 -2 6 C-2.33 6.99 -2.66 7.98 -3 9 C-3.66 8.01 -4.32 7.02 -5 6 C-3.38405168 3.95880212 -1.7143618 1.95927063 0 0 Z " fill="#1C1C15" transform="translate(82,108)"/>
<path d="M0 0 C1.66666667 0 3.33333333 0 5 0 C4.3125 1.9375 4.3125 1.9375 3 4 C0.375 4.75 0.375 4.75 -2 5 C-1.34 4.67 -0.68 4.34 0 4 C0 2.68 0 1.36 0 0 Z " fill="#90B9E0" transform="translate(87,180)"/>
<path d="M0 0 C2.375 -0.1875 2.375 -0.1875 5 0 C5.66 0.99 6.32 1.98 7 3 C4.33333333 3 1.66666667 3 -1 3 C-0.67 2.01 -0.34 1.02 0 0 Z " fill="#0E0E0A" transform="translate(66,103)"/>
<path d="M0 0 C0.66 0.33 1.32 0.66 2 1 C0.07423885 3.43929746 -1.80090595 5.80090595 -4 8 C-4 4 -4 4 -2 1.75 C-1.01 0.88375 -1.01 0.88375 0 0 Z " fill="#0C1217" transform="translate(39,90)"/>
<path d="M0 0 C1.65 0 3.3 0 5 0 C5 0.33 5 0.66 5 1 C3.35 1 1.7 1 0 1 C0 0.67 0 0.34 0 0 Z " fill="#003399" transform="translate(72,199)"/>
<path d="M0 0 C0.99 0.33 1.98 0.66 3 1 C2.01 1 1.02 1 0 1 C0 0.67 0 0.34 0 0 Z " fill="#00007F" transform="translate(135,201)"/>
<path d="" fill="#00002A" transform="translate(0,0)"/>
<path d="M0 0 C0.66 0 1.32 0 2 0 C1.67 0.66 1.34 1.32 1 2 C0.67 1.34 0.34 0.68 0 0 Z " fill="#0000AA" transform="translate(188,163)"/>
<path d="M0 0 C2 1 2 1 2 1 Z " fill="#007FFF" transform="translate(182,161)"/>
<path d="" fill="#0000FF" transform="translate(0,0)"/>
</svg>
